<svg version="1.1" id="Layer_1" xmlns="http://www.w3.org/2000/svg" xmlns:xlink="http://www.w3.org/1999/xlink" x="0px" y="0px"
	 width="100%" viewBox="0 0 225 225" enable-background="new 0 0 225 225" xml:space="preserve">
<path fill="#2D8CFF" opacity="1.000000" stroke="none" 
	d="
M1.000002,199.000000 
	C1.000000,142.312439 1.000000,85.624878 1.315607,28.287643 
	C3.914083,19.165594 8.132370,11.855634 15.648217,7.133255 
	C19.760056,4.549693 24.527950,3.010272 29.000000,1.000000 
	C85.020897,1.000000 141.041794,1.000000 197.726868,1.317911 
	C208.548279,3.721919 216.431396,9.116444 221.509155,18.171556 
	C223.407120,21.556162 224.525925,25.377689 226.000000,29.000002 
	C226.000000,85.354225 226.000000,141.708450 225.684372,198.712250 
	C222.137466,205.077591 219.917114,211.837036 215.393600,216.218765 
	C210.772980,220.694534 203.891647,222.836426 198.000000,226.000000 
	C141.645767,226.000000 85.291542,226.000000 28.288052,225.684616 
	C16.209394,222.199860 7.790881,215.538589 3.255228,204.363556 
	C2.525891,202.566620 1.752845,200.787399 1.000002,199.000000 
M28.842346,73.705231 
	C28.565189,74.805145 28.050713,75.904182 28.046690,77.005096 
	C27.991657,92.065742 27.985228,107.126724 28.045021,122.187317 
	C28.050041,123.451881 28.616518,124.714203 29.105686,126.821037 
	C29.092957,128.541916 29.080229,130.262802 28.954550,132.229080 
	C28.880430,132.495514 28.944374,132.738647 29.539694,133.612289 
	C29.742802,134.927139 29.917927,136.247040 30.153435,137.556061 
	C32.091358,148.327545 45.309494,161.256866 55.424736,161.438965 
	C71.371910,161.726044 87.329613,161.435318 103.282814,161.378021 
	C115.945076,161.332550 128.610855,161.430054 141.267990,161.147141 
	C147.436844,161.009262 151.955231,156.293655 151.978943,150.296280 
	C152.051407,131.967834 152.134842,113.635803 151.845367,95.310982 
	C151.683517,85.065880 147.770554,76.263351 138.522476,71.087730 
	C133.727646,68.404343 128.170807,67.082527 122.727295,65.002823 
	C122.474243,64.884384 122.224762,64.911606 121.135979,65.270325 
	C119.418907,65.166847 117.701828,65.063362 115.281067,64.532921 
	C114.310402,64.359863 113.339920,64.036919 112.369034,64.035698 
	C89.001266,64.006447 65.633408,63.993313 42.265766,64.055519 
	C40.848957,64.059288 39.433865,64.711342 37.502087,65.493660 
	C34.796555,68.020668 32.091019,70.547684 28.842346,73.705231 
M160.579056,95.413757 
	C160.058807,96.976898 159.106903,98.535080 159.088913,100.103981 
	C158.978149,109.764610 158.870422,119.435684 159.243790,129.084641 
	C159.346146,131.729813 160.355209,135.192612 162.223358,136.769989 
	C170.557861,143.807251 179.138229,150.606491 188.075562,156.854004 
	C192.483063,159.934998 197.491333,156.808853 198.099594,151.412231 
	C198.248444,150.091660 198.254608,148.750259 198.255035,147.418411 
	C198.262238,124.589546 198.263947,101.760681 198.245850,78.931831 
	C198.244400,77.101662 198.256744,75.245430 197.975006,73.446365 
	C197.100983,67.865524 192.241302,65.518990 187.752853,68.797607 
	C177.636536,76.187119 168.148071,84.288223 160.579056,95.413757 
z"/>
<path fill="#FCFDFF" opacity="1.000000" stroke="none" 
	d="
M226.000000,28.531343 
	C224.525925,25.377689 223.407120,21.556162 221.509155,18.171556 
	C216.431396,9.116444 208.548279,3.721919 198.195526,1.317911 
	C207.259796,1.000000 216.519577,1.000000 226.000000,1.000000 
	C226.000000,10.019698 226.000000,19.041191 226.000000,28.531343 
z"/>
<path fill="#FCFDFF" opacity="1.000000" stroke="none" 
	d="
M198.468658,226.000000 
	C203.891647,222.836426 210.772980,220.694534 215.393600,216.218765 
	C219.917114,211.837036 222.137466,205.077591 225.684372,199.180908 
	C226.000000,207.927780 226.000000,216.855560 226.000000,226.000000 
	C216.980255,226.000000 207.958786,226.000000 198.468658,226.000000 
z"/>
<path fill="#FCFDFF" opacity="1.000000" stroke="none" 
	d="
M28.531342,1.000000 
	C24.527950,3.010272 19.760056,4.549693 15.648217,7.133255 
	C8.132370,11.855634 3.914083,19.165594 1.315607,27.818985 
	C1.000000,19.072218 1.000000,10.144435 1.000000,1.000000 
	C10.019741,1.000000 19.041212,1.000000 28.531342,1.000000 
z"/>
<path fill="#FCFDFF" opacity="1.000000" stroke="none" 
	d="
M1.000002,199.468658 
	C1.752845,200.787399 2.525891,202.566620 3.255228,204.363556 
	C7.790881,215.538589 16.209394,222.199860 27.819393,225.684616 
	C19.073566,226.000000 10.147134,226.000000 1.000000,226.000000 
	C1.000000,217.313675 1.000000,208.625504 1.000002,199.468658 
z"/>
<path fill="#FEFFFF" opacity="1.000000" stroke="none" 
	d="
M29.067501,131.983688 
	C29.080229,130.262802 29.092957,128.541916 29.074244,125.935410 
	C29.157030,107.724754 29.271259,90.399727 29.385487,73.074692 
	C32.091019,70.547684 34.796555,68.020668 38.225876,65.316574 
	C64.628029,65.079628 90.306389,65.019753 115.984756,64.959885 
	C117.701828,65.063362 119.418907,65.166847 121.798203,65.256798 
	C122.626366,65.210709 122.792297,65.178146 122.958221,65.145592 
	C128.170807,67.082527 133.727646,68.404343 138.522476,71.087730 
	C147.770554,76.263351 151.683517,85.065880 151.845367,95.310982 
	C152.134842,113.635803 152.051407,131.967834 151.978943,150.296280 
	C151.955231,156.293655 147.436844,161.009262 141.267990,161.147141 
	C128.610855,161.430054 115.945076,161.332550 103.282814,161.378021 
	C87.329613,161.435318 71.371910,161.726044 55.424736,161.438965 
	C45.309494,161.256866 32.091358,148.327545 30.153435,137.556061 
	C29.917927,136.247040 29.742802,134.927139 29.389387,133.036407 
	C29.181887,132.301575 29.124693,132.142639 29.067501,131.983688 
z"/>
<path fill="#FEFEFF" opacity="1.000000" stroke="none" 
	d="
M160.784790,95.085602 
	C168.148071,84.288223 177.636536,76.187119 187.752853,68.797607 
	C192.241302,65.518990 197.100983,67.865524 197.975006,73.446365 
	C198.256744,75.245430 198.244400,77.101662 198.245850,78.931831 
	C198.263947,101.760681 198.262238,124.589546 198.255035,147.418411 
	C198.254608,148.750259 198.248444,150.091660 198.099594,151.412231 
	C197.491333,156.808853 192.483063,159.934998 188.075562,156.854004 
	C179.138229,150.606491 170.557861,143.807251 162.223358,136.769989 
	C160.355209,135.192612 159.346146,131.729813 159.243790,129.084641 
	C158.870422,119.435684 158.978149,109.764610 159.088913,100.103981 
	C159.106903,98.535080 160.058807,96.976898 160.784790,95.085602 
z"/>
<path fill="#0D83FF" opacity="1.000000" stroke="none" 
	d="
M115.632912,64.746399 
	C90.306389,65.019753 64.628029,65.079628 38.483818,65.100632 
	C39.433865,64.711342 40.848957,64.059288 42.265766,64.055519 
	C65.633408,63.993313 89.001266,64.006447 112.369034,64.035698 
	C113.339920,64.036919 114.310402,64.359863 115.632912,64.746399 
z"/>
<path fill="#0E83FF" opacity="1.000000" stroke="none" 
	d="
M29.113918,73.389961 
	C29.271259,90.399727 29.157030,107.724754 28.982475,125.513680 
	C28.616518,124.714203 28.050041,123.451881 28.045021,122.187317 
	C27.985228,107.126724 27.991657,92.065742 28.046690,77.005096 
	C28.050713,75.904182 28.565189,74.805145 29.113918,73.389961 
z"/>
<path fill="#0D83FF" opacity="1.000000" stroke="none" 
	d="
M122.842758,65.074203 
	C122.792297,65.178146 122.626366,65.210709 122.219643,65.163879 
	C122.224762,64.911606 122.474243,64.884384 122.842758,65.074203 
z"/>
<path fill="#0E83FF" opacity="1.000000" stroke="none" 
	d="
M29.011024,132.106384 
	C29.124693,132.142639 29.181887,132.301575 29.192732,132.709503 
	C28.944374,132.738647 28.880430,132.495514 29.011024,132.106384 
z"/>
</svg>